<svg xmlns="http://www.w3.org/2000/svg" xmlns:xlink="http://www.w3.org/1999/xlink" width="500" zoomAndPan="magnify" viewBox="0 0 375 149.999998" height="200" preserveAspectRatio="xMidYMid meet" version="1.0"><defs><g/></defs><g fill="#ffffff" fill-opacity="1"><g transform="translate(0.000003125, 113.053633)"><g><path d="M 1.390625 0 L 12.53125 0 C 13.367188 0 13.921875 -0.558594 13.921875 -1.390625 L 13.921875 -47.335938 C 13.921875 -48.171875 13.367188 -48.726562 12.53125 -48.726562 L 1.390625 -48.726562 C 0.558594 -48.726562 0 -48.171875 0 -47.335938 L 0 -1.390625 C 0 -0.558594 0.558594 0 1.390625 0 Z M 1.390625 -55.691406 L 12.53125 -55.691406 C 13.367188 -55.691406 13.921875 -56.246094 13.921875 -57.082031 L 13.921875 -68.21875 C 13.921875 -69.054688 13.367188 -69.613281 12.53125 -69.613281 L 1.390625 -69.613281 C 0.558594 -69.613281 0 -69.054688 0 -68.21875 L 0 -57.082031 C 0 -56.246094 0.558594 -55.691406 1.390625 -55.691406 Z M 1.390625 -55.691406 "/></g></g></g><g fill="#ffffff" fill-opacity="1"><g transform="translate(27.844388, 113.053633)"><g><path d="M 43.160156 0 L 54.296875 0 C 55.132812 0 55.691406 -0.558594 55.691406 -1.390625 L 55.691406 -55.691406 L 96.0625 -55.691406 C 96.898438 -55.691406 97.457031 -56.246094 97.457031 -57.082031 L 97.457031 -68.21875 C 97.457031 -69.054688 96.898438 -69.613281 96.0625 -69.613281 L 1.390625 -69.613281 C 0.558594 -69.613281 0 -69.054688 0 -68.21875 L 0 -57.082031 C 0 -56.246094 0.558594 -55.691406 1.390625 -55.691406 L 41.765625 -55.691406 L 41.765625 -1.390625 C 41.765625 -0.558594 42.324219 0 43.160156 0 Z M 43.160156 0 "/></g></g></g><g fill="#ffffff" fill-opacity="1"><g transform="translate(139.221961, 113.053633)"><g><path d="M 14.199219 0 L 90.496094 0 C 91.332031 0 91.886719 -0.558594 91.886719 -1.390625 L 91.886719 -12.53125 C 91.886719 -13.367188 91.332031 -13.921875 90.496094 -13.921875 L 16.707031 -13.921875 C 15.175781 -13.921875 13.921875 -15.175781 13.921875 -16.707031 L 13.921875 -27.84375 L 83.253906 -27.84375 C 91.46875 -27.84375 97.457031 -33.832031 97.457031 -42.046875 L 97.457031 -55.410156 C 97.457031 -63.625 91.46875 -69.613281 83.253906 -69.613281 L 14.199219 -69.613281 C 5.988281 -69.613281 0 -63.625 0 -55.410156 L 0 -14.199219 C 0 -5.988281 5.988281 0 14.199219 0 Z M 13.921875 -41.765625 L 13.921875 -52.90625 C 13.921875 -54.4375 15.175781 -55.691406 16.707031 -55.691406 L 80.75 -55.691406 C 82.28125 -55.691406 83.535156 -54.4375 83.535156 -52.90625 L 83.535156 -44.550781 C 83.535156 -43.019531 82.28125 -41.765625 80.75 -41.765625 Z M 13.921875 -41.765625 "/></g></g></g><g fill="#ffffff" fill-opacity="1"><g transform="translate(250.599533, 113.053633)"><g><path d="M 1.390625 0 L 12.53125 0 C 13.367188 0 13.921875 -0.558594 13.921875 -1.390625 L 13.921875 -27.84375 L 81.308594 -27.84375 C 82.839844 -27.84375 84.089844 -26.589844 84.089844 -25.058594 L 84.089844 -1.390625 C 84.089844 -0.558594 84.648438 0 85.484375 0 L 96.621094 0 C 97.457031 0 98.011719 -0.558594 98.011719 -1.390625 L 98.011719 -27.566406 C 98.011719 -33.554688 94.949219 -38.285156 90.078125 -40.515625 L 99.546875 -67.523438 C 99.960938 -68.636719 99.128906 -69.613281 98.011719 -69.613281 L 85.902344 -69.613281 C 85.34375 -69.613281 84.789062 -69.195312 84.648438 -68.777344 L 75.179688 -41.765625 L 13.921875 -41.765625 L 13.921875 -68.21875 C 13.921875 -69.054688 13.367188 -69.613281 12.53125 -69.613281 L 1.390625 -69.613281 C 0.558594 -69.613281 0 -69.054688 0 -68.21875 L 0 -1.390625 C 0 -0.558594 0.558594 0 1.390625 0 Z M 1.390625 0 "/></g></g></g><g fill="#ffffff" fill-opacity="1"><g transform="translate(360.584902, 113.053633)"><g><path d="M 1.390625 0 L 12.53125 0 C 13.367188 0 13.921875 -0.558594 13.921875 -1.390625 L 13.921875 -47.335938 C 13.921875 -48.171875 13.367188 -48.726562 12.53125 -48.726562 L 1.390625 -48.726562 C 0.558594 -48.726562 0 -48.171875 0 -47.335938 L 0 -1.390625 C 0 -0.558594 0.558594 0 1.390625 0 Z M 1.390625 -55.691406 L 12.53125 -55.691406 C 13.367188 -55.691406 13.921875 -56.246094 13.921875 -57.082031 L 13.921875 -68.21875 C 13.921875 -69.054688 13.367188 -69.613281 12.53125 -69.613281 L 1.390625 -69.613281 C 0.558594 -69.613281 0 -69.054688 0 -68.21875 L 0 -57.082031 C 0 -56.246094 0.558594 -55.691406 1.390625 -55.691406 Z M 1.390625 -55.691406 "/></g></g></g></svg>